# xmcd CD database file
#
# Track frame offsets:
#	150
#	38225
#	54275
#	71272
#
# Disc length: 1289 seconds
#
# Revision: 0
# Processed by: cddbd v1.5.1PL0 Copyright (c) Steve Scherf et al.
# Submitted via: CDex 1.51
#
DISCID=2a050704
DTITLE=高中正義 - FINGER DANCIN'
DYEAR=1981
DGENRE=Fusion
TTITLE0=SPACE WAGON
TTITLE1=PLASTIC TEARS
TTITLE2=FINGER DANCIN'
TTITLE3=HEART ACHE
EXTD=YEAR: 1981
EXTT0=
EXTT1=
EXTT2=
EXTT3=
PLAYORDER=
